<svg width="63" height="63" viewBox="0 0 63 63" fill="none" xmlns="http://www.w3.org/2000/svg">
<circle cx="31.5" cy="31.5" r="31.5" fill="#59C64F"/>
<path d="M31.5 32.3438C35.9347 32.3438 40.4853 35.2271 40.7801 41.0198C40.7914 41.243 40.7137 41.4617 40.5639 41.6277C40.4141 41.7937 40.2046 41.8935 39.9813 41.9051C37.6413 42.0244 26.8042 42.0975 23.0197 41.9051C22.7962 41.8938 22.5864 41.7941 22.4364 41.6281C22.2864 41.462 22.2085 41.2432 22.2198 41.0198C22.5146 35.2283 27.0652 32.3438 31.5 32.3438ZM31.5 22.2188C30.3811 22.2188 29.308 22.6632 28.5169 23.4544C27.7257 24.2456 27.2812 25.3186 27.2812 26.4375C27.2812 27.5564 27.7257 28.6294 28.5169 29.4206C29.308 30.2118 30.3811 30.6562 31.5 30.6562C32.6188 30.6562 33.6919 30.2118 34.4831 29.4206C35.2742 28.6294 35.7187 27.5564 35.7187 26.4375C35.7187 25.3186 35.2742 24.2456 34.4831 23.4544C33.6919 22.6632 32.6188 22.2188 31.5 22.2188Z" fill="white"/>
</svg>
