<svg width="63" height="63" viewBox="0 0 63 63" fill="none" xmlns="http://www.w3.org/2000/svg">
<circle cx="31.5" cy="31.5" r="31.5" fill="#FBCE2B"/>
<path d="M21.5859 28.9688C21.5859 28.8009 21.6526 28.64 21.7713 28.5213C21.89 28.4026 22.0509 28.3359 22.2187 28.3359H23.9062C24.0741 28.3359 24.235 28.4026 24.3537 28.5213C24.4724 28.64 24.5391 28.8009 24.5391 28.9688C24.5391 29.1366 24.4724 29.2975 24.3537 29.4162C24.235 29.5349 24.0741 29.6016 23.9062 29.6016H22.2187C22.0509 29.6016 21.89 29.5349 21.7713 29.4162C21.6526 29.2975 21.5859 29.1366 21.5859 28.9688ZM25.6823 24.0465C25.7409 24.1061 25.8107 24.1535 25.8876 24.186C25.9646 24.2185 26.0472 24.2354 26.1307 24.2358C26.2143 24.2362 26.2971 24.22 26.3743 24.1882C26.4516 24.1565 26.5218 24.1097 26.5809 24.0507C26.64 23.9917 26.6868 23.9215 26.7187 23.8443C26.7505 23.7671 26.7668 23.6843 26.7665 23.6008C26.7662 23.5172 26.7494 23.4346 26.717 23.3576C26.6846 23.2806 26.6373 23.2108 26.5778 23.1521L25.3828 21.9582C25.2621 21.8513 25.1052 21.7944 24.944 21.7992C24.7828 21.8041 24.6295 21.8703 24.5155 21.9843C24.4015 22.0983 24.3353 22.2516 24.3305 22.4128C24.3256 22.5739 24.3825 22.7309 24.4895 22.8516L25.6823 24.0465ZM31.5 22.0078C31.6678 22.0078 31.8288 21.9411 31.9475 21.8225C32.0661 21.7038 32.1328 21.5428 32.1328 21.375V19.6875C32.1328 19.5197 32.0661 19.3587 31.9475 19.24C31.8288 19.1214 31.6678 19.0547 31.5 19.0547C31.3322 19.0547 31.1712 19.1214 31.0525 19.24C30.9339 19.3587 30.8672 19.5197 30.8672 19.6875V21.375C30.8672 21.5428 30.9339 21.7038 31.0525 21.8225C31.1712 21.9411 31.3322 22.0078 31.5 22.0078ZM36.8694 24.2321C36.9527 24.2322 37.0351 24.2159 37.112 24.184C37.1889 24.1521 37.2588 24.1054 37.3176 24.0465L38.5105 22.8516C38.6175 22.7309 38.6744 22.5739 38.6695 22.4128C38.6647 22.2516 38.5985 22.0983 38.4845 21.9843C38.3704 21.8703 38.2172 21.8041 38.056 21.7992C37.8948 21.7944 37.7378 21.8513 37.6172 21.9582L36.4222 23.1521C36.3338 23.2406 36.2736 23.3534 36.2493 23.476C36.2249 23.5987 36.2374 23.7259 36.2853 23.8414C36.3331 23.957 36.4142 24.0558 36.5181 24.1253C36.6221 24.1949 36.7443 24.232 36.8694 24.2321ZM38.4609 28.9688C38.4609 29.1366 38.5276 29.2975 38.6463 29.4162C38.7649 29.5349 38.9259 29.6016 39.0937 29.6016H40.7812C40.9491 29.6016 41.11 29.5349 41.2287 29.4162C41.3474 29.2975 41.4141 29.1366 41.4141 28.9688C41.4141 28.8009 41.3474 28.64 41.2287 28.5213C41.11 28.4026 40.9491 28.3359 40.7812 28.3359H39.0937C38.9259 28.3359 38.7649 28.4026 38.6463 28.5213C38.5276 28.64 38.4609 28.8009 38.4609 28.9688ZM27.2812 29.6016C27.4491 29.6016 27.61 29.5349 27.7287 29.4162C27.8474 29.2975 27.9141 29.1366 27.9141 28.9688C27.9141 28.0177 28.2919 27.1056 28.9644 26.4331C29.6368 25.7606 30.5489 25.3828 31.5 25.3828C32.451 25.3828 33.3631 25.7606 34.0356 26.4331C34.7081 27.1056 35.0859 28.0177 35.0859 28.9688C35.0859 29.1366 35.1526 29.2975 35.2713 29.4162C35.39 29.5349 35.5509 29.6016 35.7187 29.6016C35.8866 29.6016 36.0475 29.5349 36.1662 29.4162C36.2849 29.2975 36.3516 29.1366 36.3516 28.9688C36.3516 27.682 35.8404 26.448 34.9306 25.5382C34.0207 24.6283 32.7867 24.1172 31.5 24.1172C30.2133 24.1172 28.9793 24.6283 28.0694 25.5382C27.1596 26.448 26.6484 27.682 26.6484 28.9688C26.6484 29.1366 26.7151 29.2975 26.8338 29.4162C26.9525 29.5349 27.1134 29.6016 27.2812 29.6016ZM43.0151 41.0977C42.9597 41.1936 42.8801 41.2733 42.7842 41.3289C42.6883 41.3844 42.5795 41.4138 42.4687 41.4141H20.5312C20.4207 41.414 20.3121 41.3849 20.2163 41.3299C20.1205 41.2748 20.0408 41.1955 19.9851 41.1001C19.9294 41.0046 19.8997 40.8962 19.8989 40.7857C19.8982 40.6752 19.9264 40.5664 19.9807 40.4701L24.2722 32.8764C24.3274 32.7787 24.4075 32.6974 24.5045 32.6409C24.6014 32.5843 24.7116 32.5546 24.8238 32.5547H38.1762C38.2884 32.5546 38.3986 32.5843 38.4955 32.6409C38.5924 32.6974 38.6726 32.7787 38.7278 32.8764L43.0193 40.4701C43.0732 40.5661 43.1012 40.6744 43.1004 40.7844C43.0997 40.8945 43.0703 41.0025 43.0151 41.0977ZM37.807 33.8203H34.8539L35.3127 35.9297H39.0041L37.807 33.8203ZM34.0165 35.9297L33.5577 33.8203H29.4444L28.9856 35.9297H34.0165ZM28.7082 37.1953L28.0659 40.1484H34.9341L34.2917 37.1953H28.7082ZM24.0001 35.9297H27.6915L28.1503 33.8203H25.1972L24.0001 35.9297ZM21.6155 40.1484H26.7708L27.4131 37.1953H23.285L21.6155 40.1484ZM41.3845 40.1484L39.715 37.1953H35.5869L36.2292 40.1484H41.3845Z" fill="white"/>
</svg>
