<svg width="63" height="63" viewBox="0 0 63 63" fill="none" xmlns="http://www.w3.org/2000/svg">
<circle cx="31.5" cy="31.5" r="31.5" fill="#3AB678"/>
<path fill-rule="evenodd" clip-rule="evenodd" d="M23.4975 37.1645C21.7043 35.1929 21.2143 32.6985 21.4325 30.4702C21.6728 28.012 22.794 25.6542 24.2535 24.4374C26.2041 22.8122 28.2528 22.1449 30.0308 21.8182C30.8967 21.6703 31.7686 21.5602 32.6441 21.488C33.1155 21.4437 33.5926 21.3994 34.0511 21.285C35.0171 21.0435 35.9703 20.6515 36.7555 20.0285C37.1148 19.7427 37.4788 19.4534 37.963 19.507C38.137 19.5264 38.3045 19.5847 38.4529 19.6776C38.6013 19.7705 38.727 19.8956 38.8205 20.0437C42.5538 25.9552 41.9903 32.2307 38.8718 36.1834C37.3143 38.1562 35.1268 39.5329 32.5753 39.94C30.3493 40.2935 27.9168 39.898 25.4656 38.6147C25.2503 39.2841 25.0903 39.9701 24.9873 40.6657C24.9435 40.972 24.7798 41.2484 24.5323 41.434C24.2847 41.6197 23.9735 41.6994 23.6672 41.6556C23.3609 41.6118 23.0845 41.4482 22.8988 41.2006C22.7132 40.953 22.6335 40.6418 22.6773 40.3355C22.822 39.3264 23.0973 38.2519 23.4975 37.1645ZM30.4508 24.113C31.2721 23.9625 32.0433 23.8902 32.7923 23.8167C33.4036 23.7584 34.0196 23.6977 34.617 23.5484C35.6229 23.3019 36.5864 22.9063 37.4753 22.3747C40.0163 27.1779 39.307 31.8644 37.0401 34.739C35.8175 36.2884 34.1363 37.329 32.2101 37.6347C30.48 37.91 28.4768 37.6067 26.3418 36.4377C27.6391 33.7929 29.7601 31.2577 32.5216 29.8775C32.7985 29.7392 33.0092 29.4966 33.1072 29.2029C33.2052 28.9093 33.1826 28.5888 33.0443 28.3119C32.906 28.0349 32.6633 27.8243 32.3697 27.7263C32.0761 27.6282 31.7556 27.6509 31.4786 27.7892C28.436 29.3105 26.105 31.9414 24.5895 34.7472C23.8416 33.5222 23.6176 32.0977 23.7553 30.6965C23.9525 28.6805 24.8753 26.9574 25.7468 26.2294C27.2961 24.9379 28.9295 24.393 30.452 24.113H30.4508Z" fill="white"/>
</svg>
