<svg width="63" height="63" viewBox="0 0 63 63" fill="none" xmlns="http://www.w3.org/2000/svg">
<circle cx="31.5" cy="31.5" r="31.5" fill="#3340D6"/>
<path d="M41.625 20.6875H31.5C31.0524 20.6875 30.6232 20.8653 30.3068 21.1818C29.9903 21.4982 29.8125 21.9274 29.8125 22.375V30.8125H21.375C20.9274 30.8125 20.4982 30.9903 20.1818 31.3068C19.8653 31.6232 19.6875 32.0524 19.6875 32.5V44.3125H43.3125V22.375C43.3125 21.9274 43.1347 21.4982 42.8182 21.1818C42.5018 20.8653 42.0726 20.6875 41.625 20.6875ZM25.5938 42.625V36.7188H28.9688V42.625H25.5938ZM41.625 42.625H30.6562V35.875C30.6562 35.6512 30.5674 35.4366 30.4091 35.2784C30.2509 35.1201 30.0363 35.0312 29.8125 35.0312H24.75C24.5262 35.0312 24.3116 35.1201 24.1534 35.2784C23.9951 35.4366 23.9062 35.6512 23.9062 35.875V42.625H21.375V32.5H31.5V22.375H41.625V42.625Z" fill="white"/>
<path d="M33.1875 25.75H34.875V27.4375H33.1875V25.75ZM38.25 25.75H39.9375V27.4375H38.25V25.75ZM33.1875 30.8125H34.875V32.5H33.1875V30.8125ZM38.25 30.8125H39.9375V32.5H38.25V30.8125ZM33.1875 35.875H34.875V37.5625H33.1875V35.875ZM38.25 35.875H39.9375V37.5625H38.25V35.875Z" fill="white"/>
</svg>
