<svg width="63" height="63" viewBox="0 0 63 63" fill="none" xmlns="http://www.w3.org/2000/svg">
<circle cx="31.5" cy="31.5" r="31.5" fill="#654FC6"/>
<path d="M35.0004 23H24.9844C23.8814 23 22.9844 23.897 22.9844 25V39.016C22.9844 40.119 23.8814 41.016 24.9844 41.016H39.0004C40.1034 41.016 41.0004 40.119 41.0004 39.016V25C41.0004 23.897 40.1034 23 39.0004 23H35.0004ZM39.0004 28H36.0004V25H39.0004V28ZM24.9844 30H27.9844V34.016H24.9844V30ZM29.9844 30H34.0004V34.016H29.9844V30ZM36.0004 30H39.0004V34.016H36.0004V30ZM34.0004 25V28H29.9844V25H34.0004ZM27.9844 25V28H24.9844V25H27.9844ZM24.9844 36.016H27.9844V39.016H24.9844V36.016ZM29.9844 39.016V36.016H34.0004V39.016H29.9844ZM36.0004 39.016V36.016H39.0014V39.016H36.0004Z" fill="white"/>
</svg>
