<svg width="63" height="63" viewBox="0 0 63 63" fill="none" xmlns="http://www.w3.org/2000/svg">
<circle cx="31.5" cy="31.5" r="31.5" fill="#832481"/>
<mask id="mask0_883_3970" style="mask-type:luminance" maskUnits="userSpaceOnUse" x="19" y="17" width="25" height="25">
<path d="M19.708 17.708H43.1636V41.1636H19.708V17.708Z" fill="white"/>
</mask>
<g mask="url(#mask0_883_3970)">
<path d="M33.5235 36.8193C33.4061 36.8828 33.2619 36.8817 33.1553 36.8236L31.9659 36.0841H34.8227L33.5235 36.8193ZM42.2164 33.8431L33.8733 40.1356C33.5751 40.3681 33.1801 40.4403 32.8044 40.3283L24.8628 38.1798C24.7164 38.1357 24.5636 38.1131 24.4097 38.1131C24.4064 38.1131 24.4032 38.1131 24.3989 38.1131V33.9378L26.2546 33.1359C26.7465 32.9583 27.2804 32.9109 27.8014 32.9938L36.5255 34.405C36.744 34.4405 36.9087 34.631 36.9087 34.8506C36.9087 34.9076 36.8969 34.9668 36.8753 35.0217C36.8527 35.0788 36.8183 35.1283 36.7806 35.167C36.6924 35.2542 36.5761 35.3027 36.4555 35.3027H36.3102C36.3102 35.3027 36.3092 35.3027 36.307 35.3027H30.5946C30.5925 35.3027 30.5925 35.3048 30.5914 35.3048L29.092 35.2994H29.0898C28.8745 35.2994 28.7012 35.4738 28.6991 35.6891C28.698 35.9065 28.8735 36.0798 29.0887 36.082L30.4848 36.0863L32.7581 37.4974C32.9401 37.5975 33.1381 37.6481 33.3372 37.6481C33.5321 37.6481 33.728 37.5997 33.9056 37.5017C33.9067 37.5006 33.9067 37.5006 33.9067 37.5006L36.4136 36.0841H36.4555C36.7806 36.0841 37.0906 35.9582 37.3306 35.7246C37.4081 35.645 37.4706 35.5535 37.5255 35.4566L41.7083 33.0928C41.9258 32.9723 42.2013 33.0509 42.3251 33.2683C42.3638 33.3393 42.3821 33.4136 42.3821 33.49C42.3821 33.6289 42.3176 33.7634 42.2164 33.8431ZM23.6175 38.8181C23.6175 39.0334 23.442 39.2089 23.2267 39.2089H20.8802C20.6649 39.2089 20.4895 39.0334 20.4895 38.8181V33.3447C20.4895 33.1294 20.6649 32.954 20.8802 32.954H23.2267C23.442 32.954 23.6175 33.1294 23.6175 33.3447V33.6569C23.6175 33.6655 23.6131 33.673 23.6131 33.6827L23.6175 38.5738V38.8181ZM31.0585 29.8615C31.0478 29.727 31.0445 29.5978 31.0445 29.4633C31.0445 29.3675 31.0499 29.2663 31.0521 29.1748C31.0575 29.0725 31.0628 28.9713 31.0704 28.8788C31.2447 27.0521 32.1629 24.9779 33.4169 23.5883C33.5375 23.4495 33.6655 23.3149 33.8087 23.1814H39.2272C40.8106 24.6787 41.9914 27.3503 41.9914 29.4633C41.9914 30.5967 41.6416 31.6806 40.9828 32.6042L37.6385 34.4954C37.5061 34.0519 37.1315 33.7096 36.6504 33.6321L32.3082 32.9314C31.5752 32.0552 31.1414 30.9982 31.0585 29.8615ZM33.39 21.6175H39.6449C39.8602 21.6175 40.0367 21.7929 40.0367 22.0082C40.0367 22.2235 39.8602 22.3989 39.6449 22.3989H33.39C33.1747 22.3989 32.9993 22.2235 32.9993 22.0082C32.9993 21.7929 33.1747 21.6175 33.39 21.6175ZM33.8076 18.9222C34.2888 18.7704 35.3426 18.4895 36.518 18.4895C37.6988 18.4895 38.7547 18.7726 39.2283 18.9222L38.6202 20.8349H34.4147L33.8076 18.9222ZM43.0075 32.8905C42.8127 32.5385 42.4704 32.3254 42.0991 32.2726C42.5425 31.4061 42.7729 30.4503 42.7729 29.4633C42.7729 27.3105 41.7094 24.7336 40.1809 23.0447C40.5587 22.8499 40.8181 22.4603 40.8181 22.0082C40.8181 21.3602 40.2929 20.8349 39.6449 20.8349H39.4404L40.0076 19.0535C40.111 18.7015 39.9215 18.3323 39.5706 18.2107C38.9991 18.0223 37.843 17.708 36.518 17.708C35.1919 17.708 34.0369 18.0223 33.4578 18.2118C33.1144 18.3323 32.925 18.7015 33.0305 19.0621L33.5956 20.8349H33.39C32.7431 20.8349 32.2178 21.3602 32.2178 22.0082C32.2178 22.4603 32.4772 22.8499 32.8539 23.0447C32.8464 23.0544 32.8378 23.063 32.8303 23.0706C31.4772 24.5711 30.4794 26.8218 30.2921 28.8131C30.2825 28.9229 30.2749 29.0327 30.2706 29.1425C30.2674 29.2469 30.2631 29.3567 30.2631 29.4633C30.2631 29.6193 30.2674 29.7689 30.2803 29.9218C30.3535 30.9379 30.671 31.9002 31.2081 32.7527L27.9252 32.2231C27.275 32.1176 26.6055 32.1801 25.9694 32.4093L24.372 33.0982C24.259 32.5697 23.7886 32.1725 23.2267 32.1725H20.8802C20.2333 32.1725 19.708 32.6978 19.708 33.3447V38.8181C19.708 39.4651 20.2333 39.9914 20.8802 39.9914H23.2267C23.8467 39.9914 24.3505 39.5049 24.3914 38.8956C24.4753 38.8946 24.5614 38.9053 24.6454 38.9312L32.5902 41.0807C32.7754 41.1367 32.9659 41.1625 33.1543 41.1625C33.5827 41.1625 34.0057 41.0237 34.3491 40.7556L42.6954 34.4609C42.9881 34.2295 43.1636 33.8657 43.1636 33.49C43.1636 33.2844 43.1098 33.0778 43.0108 32.8926C43.0097 32.8926 43.0097 32.8915 43.0075 32.8905Z" fill="white"/>
</g>
<path d="M22.4446 33.7368H21.6632C21.4479 33.7368 21.2725 33.9123 21.2725 34.1275C21.2725 34.3428 21.4479 34.5183 21.6632 34.5183H22.4446C22.6599 34.5183 22.8354 34.3428 22.8354 34.1275C22.8354 33.9123 22.6599 33.7368 22.4446 33.7368Z" fill="white"/>
<path d="M22.4446 37.645H21.6632C21.4479 37.645 21.2725 37.8215 21.2725 38.0368C21.2725 38.2521 21.4479 38.4276 21.6632 38.4276H22.4446C22.6599 38.4276 22.8354 38.2521 22.8354 38.0368C22.8354 37.8215 22.6599 37.645 22.4446 37.645Z" fill="white"/>
<path d="M37.4014 28.0772C37.3519 28.5282 37.1742 28.8888 36.8675 29.1579C36.5596 29.4248 36.1237 29.6003 35.5586 29.6831L37.763 32.2708H36.691L34.4951 29.7004L34.5941 28.9555H35.0635C35.4165 28.9555 35.6856 28.9275 35.8729 28.8694C36.0623 28.8091 36.213 28.7133 36.325 28.5809C36.4369 28.4464 36.5112 28.2785 36.5489 28.0772H34.4951V27.3323H36.5403C36.5026 27.1547 36.4294 27.0029 36.3207 26.8759C36.2109 26.7468 36.072 26.6585 35.903 26.609C35.7362 26.5573 35.4983 26.5315 35.1883 26.5315H34.4951V25.7866H38.8911V26.5315H36.9364C37.1775 26.7069 37.3303 26.9739 37.3971 27.3323H38.8911V28.0772H37.4014Z" fill="#FFD013"/>
</svg>
