<svg width="63" height="63" viewBox="0 0 63 63" fill="none" xmlns="http://www.w3.org/2000/svg">
<circle cx="31.5" cy="31.5" r="31.5" fill="#832481"/>
<path d="M32.313 41L22.944 33.575V30.335H30.504C31.17 30.335 31.746 30.209 32.232 29.957C32.718 29.687 33.096 29.318 33.366 28.85C33.636 28.382 33.771 27.842 33.771 27.23C33.771 26.6 33.636 26.06 33.366 25.61C33.096 25.142 32.718 24.782 32.232 24.53C31.746 24.26 31.17 24.125 30.504 24.125H22.944V20.885H39.063V23.153H34.473L35.391 22.424C36.039 22.982 36.543 23.666 36.903 24.476C37.263 25.268 37.443 26.186 37.443 27.23C37.443 28.562 37.137 29.705 36.525 30.659C35.931 31.595 35.112 32.315 34.068 32.819C33.024 33.323 31.818 33.575 30.45 33.575H26.832L27.183 32.549L37.713 41H32.313ZM22.944 28.337V26.096H39.063V28.337H22.944Z" fill="white"/>
</svg>
