<svg width="63" height="63" viewBox="0 0 63 63" fill="none" xmlns="http://www.w3.org/2000/svg">
<circle cx="31.5" cy="31.5" r="31.5" fill="#DF8169"/>
<path d="M31.0625 41.5H20.9375C20.4899 41.5 20.0607 41.3222 19.7443 41.0057C19.4278 40.6893 19.25 40.2601 19.25 39.8125V25.1875C19.25 24.7399 19.4278 24.3107 19.7443 23.9943C20.0607 23.6778 20.4899 23.5 20.9375 23.5H40.0625C40.5101 23.5 40.9393 23.6778 41.2557 23.9943C41.5722 24.3107 41.75 24.7399 41.75 25.1875V33.0293" stroke="white" stroke-width="2" stroke-linecap="round" stroke-linejoin="round"/>
<path d="M19.25 25.1875C19.25 24.7399 19.4278 24.3107 19.7443 23.9943C20.0607 23.6778 20.4899 23.5 20.9375 23.5H40.0625C40.5101 23.5 40.9393 23.6778 41.2557 23.9943C41.5722 24.3107 41.75 24.7399 41.75 25.1875V30.25H19.25V25.1875Z" stroke="white" stroke-width="2"/>
<path d="M35 38.6875H41.75M38.375 35.3125V42.0625" stroke="white" stroke-width="2" stroke-linecap="round" stroke-linejoin="round"/>
<path d="M21.5 26.875C21.5 26.2537 22.0037 25.75 22.625 25.75C23.2463 25.75 23.75 26.2537 23.75 26.875C23.75 27.4963 23.2463 28 22.625 28C22.0037 28 21.5 27.4963 21.5 26.875Z" fill="white"/>
<path d="M24.875 26.875C24.875 26.2537 25.3787 25.75 26 25.75C26.6213 25.75 27.125 26.2537 27.125 26.875C27.125 27.4963 26.6213 28 26 28C25.3787 28 24.875 27.4963 24.875 26.875Z" fill="white"/>
</svg>
