<svg width="25" height="25" viewBox="0 0 25 25" fill="none" xmlns="http://www.w3.org/2000/svg">
<circle cx="12.5" cy="12.5" r="12" fill="white" stroke="#A0A0A0"/>
<path d="M4 15.2V16.3984C4 16.62 4.18 16.8 4.4016 16.8H5.1992C5.25193 16.8001 5.30416 16.7897 5.35289 16.7696C5.40162 16.7494 5.44588 16.7198 5.48313 16.6825C5.52038 16.6452 5.54988 16.6009 5.56994 16.5521C5.58999 16.5033 5.60021 16.4511 5.6 16.3984V15.2C5.6 14.4328 6.2408 13.3816 7.2 12.9768V11.2928C5.3472 11.7216 4 13.576 4 15.2ZM13.652 7.76075L11.628 9.27915C11.3504 9.48715 11.0128 9.59995 10.6656 9.59995H8.804C8.36 9.59995 8 9.95995 8 10.404V13.5968C8 14.04 8.36 14.4 8.804 14.4H10.6656C11.0128 14.4 11.3504 14.5128 11.628 14.7208L13.6528 16.2392C14.1378 16.6033 14.7279 16.8001 15.3344 16.8H16.8V7.19995H15.3344C14.728 7.19995 14.1376 7.39675 13.652 7.76075ZM17.6 8.79995V10.4H20V8.79995H17.6ZM17.6 15.2H20V13.6H17.6V15.2Z" fill="#6A6565"/>
</svg>
