<svg width="22" height="22" viewBox="0 0 22 22" fill="none" xmlns="http://www.w3.org/2000/svg">
<circle cx="11" cy="11" r="11" fill="#0D3760"/>
<path d="M11.293 6.29279C11.4805 6.10532 11.7348 6 12 6C12.2652 6 12.5195 6.10532 12.707 6.29279L17.207 10.7928C17.3945 10.9803 17.4998 11.2346 17.4998 11.4998C17.4998 11.765 17.3945 12.0193 17.207 12.2068L12.707 16.7068C12.5184 16.8889 12.2658 16.9897 12.0036 16.9875C11.7414 16.9852 11.4906 16.88 11.3052 16.6946C11.1198 16.5092 11.0146 16.2584 11.0123 15.9962C11.01 15.734 11.1108 15.4814 11.293 15.2928L14 12.4998H4.5C4.23478 12.4998 3.98043 12.3944 3.79289 12.2069C3.60536 12.0194 3.5 11.765 3.5 11.4998C3.5 11.2346 3.60536 10.9802 3.79289 10.7927C3.98043 10.6051 4.23478 10.4998 4.5 10.4998H14L11.293 7.70679C11.1055 7.51926 11.0002 7.26495 11.0002 6.99979C11.0002 6.73462 11.1055 6.48031 11.293 6.29279Z" fill="white"/>
</svg>
