<svg width="40" height="42" viewBox="0 0 40 42" fill="none" xmlns="http://www.w3.org/2000/svg">
<g filter="url(#filter0_d_1_3151)">
<path d="M27.2889 6H13.2606C10.3553 6 8 8.50721 8 11.6V26.5333C8 29.6261 10.3553 32.1333 13.2606 32.1333H27.2889C30.1942 32.1333 32.5495 29.6261 32.5495 26.5333V11.6C32.5495 8.50721 30.1942 6 27.2889 6Z" fill="#1F467D"/>
</g>
<path d="M15 17.25C15 17.0511 15.0791 16.8603 15.2197 16.7197C15.3604 16.579 15.5511 16.5 15.75 16.5H16.25C16.449 16.5 16.6397 16.579 16.7804 16.7197C16.921 16.8603 17 17.0511 17 17.25C17 17.4489 16.921 17.6397 16.7804 17.7803C16.6397 17.921 16.449 18 16.25 18H15.75C15.5511 18 15.3604 17.921 15.2197 17.7803C15.0791 17.6397 15 17.4489 15 17.25ZM21 13.25C21.199 13.25 21.3897 13.171 21.5304 13.0303C21.671 12.8897 21.75 12.6989 21.75 12.5V12C21.75 11.8011 21.671 11.6103 21.5304 11.4697C21.3897 11.329 21.199 11.25 21 11.25C20.8011 11.25 20.6104 11.329 20.4697 11.4697C20.3291 11.6103 20.25 11.8011 20.25 12V12.5C20.25 12.6989 20.3291 12.8897 20.4697 13.0303C20.6104 13.171 20.8011 13.25 21 13.25ZM17.1107 14.4213C17.1804 14.491 17.2633 14.5464 17.3544 14.5841C17.4456 14.6219 17.5433 14.6413 17.6419 14.6413C17.7406 14.6413 17.8383 14.6219 17.9294 14.5841C18.0206 14.5464 18.1034 14.491 18.1732 14.4213C18.2429 14.3515 18.2983 14.2687 18.336 14.1775C18.3738 14.0864 18.3932 13.9887 18.3932 13.89C18.3932 13.7913 18.3738 13.6936 18.336 13.6025C18.2983 13.5113 18.2429 13.4285 18.1732 13.3588L17.8194 13.0056C17.7496 12.9359 17.6668 12.8805 17.5757 12.8428C17.4845 12.805 17.3868 12.7856 17.2882 12.7856C17.1895 12.7856 17.0918 12.805 17.0007 12.8428C16.9095 12.8805 16.8267 12.9359 16.7569 13.0056C16.616 13.1465 16.5369 13.3376 16.5369 13.5369C16.5369 13.7361 16.616 13.9272 16.7569 14.0681L17.1107 14.4213ZM24.3607 14.6412C24.4592 14.6412 24.5568 14.6218 24.6479 14.5841C24.7389 14.5463 24.8216 14.491 24.8913 14.4213L25.2444 14.0681C25.3142 13.9984 25.3695 13.9155 25.4073 13.8244C25.445 13.7332 25.4645 13.6355 25.4645 13.5369C25.4645 13.4382 25.445 13.3405 25.4073 13.2494C25.3695 13.1582 25.3142 13.0754 25.2444 13.0056C25.1746 12.9359 25.0918 12.8805 25.0007 12.8428C24.9095 12.805 24.8118 12.7856 24.7132 12.7856C24.5139 12.7856 24.3228 12.8647 24.1819 13.0056L23.8282 13.3588C23.7232 13.4636 23.6516 13.5973 23.6226 13.7429C23.5937 13.8885 23.6085 14.0394 23.6653 14.1765C23.7221 14.3136 23.8184 14.4308 23.9418 14.5132C24.0652 14.5956 24.2104 14.6395 24.3588 14.6394L24.3607 14.6412ZM25 17.25C25 17.4489 25.0791 17.6397 25.2197 17.7803C25.3604 17.921 25.5511 18 25.75 18H26.25C26.449 18 26.6397 17.921 26.7804 17.7803C26.921 17.6397 27 17.4489 27 17.25C27 17.0511 26.921 16.8603 26.7804 16.7197C26.6397 16.579 26.449 16.5 26.25 16.5H25.75C25.5511 16.5 25.3604 16.579 25.2197 16.7197C25.0791 16.8603 25 17.0511 25 17.25ZM18.5 18C18.699 18 18.8897 17.921 19.0304 17.7803C19.171 17.6397 19.25 17.4489 19.25 17.25C19.25 16.7859 19.4344 16.3408 19.7626 16.0126C20.0908 15.6844 20.5359 15.5 21 15.5C21.4642 15.5 21.9093 15.6844 22.2375 16.0126C22.5657 16.3408 22.75 16.7859 22.75 17.25C22.75 17.4489 22.8291 17.6397 22.9697 17.7803C23.1104 17.921 23.3011 18 23.5 18C23.699 18 23.8897 17.921 24.0304 17.7803C24.171 17.6397 24.25 17.4489 24.25 17.25C24.25 16.388 23.9076 15.5614 23.2981 14.9519C22.6886 14.3424 21.862 14 21 14C20.1381 14 19.3114 14.3424 18.7019 14.9519C18.0924 15.5614 17.75 16.388 17.75 17.25C17.75 17.4489 17.8291 17.6397 17.9697 17.7803C18.1104 17.921 18.3011 18 18.5 18ZM28.1475 24.8781C28.0815 24.9913 27.987 25.0851 27.8734 25.1504C27.7598 25.2156 27.631 25.25 27.5 25.25H14.5C14.369 25.25 14.2402 25.2157 14.1266 25.1504C14.0129 25.0852 13.9184 24.9913 13.8523 24.8781C13.7862 24.765 13.751 24.6364 13.75 24.5054C13.7491 24.3744 13.7825 24.2454 13.8469 24.1313L16.5344 19.3813C16.5997 19.2655 16.6946 19.1693 16.8094 19.1023C16.9242 19.0353 17.0547 19 17.1875 19H24.8125C24.9454 19 25.0759 19.0353 25.1907 19.1023C25.3054 19.1693 25.4003 19.2655 25.4657 19.3813L28.1532 24.1313C28.2176 24.2454 28.2509 24.3744 28.2499 24.5054C28.2489 24.6365 28.2136 24.765 28.1475 24.8781ZM24.375 20.5H21.75V21.25H24.8013L24.375 20.5ZM17.625 20.5L17.2013 21.25H20.25V20.5H17.625ZM15.7857 23.75H20.25V22.75H16.3507L15.7857 23.75ZM26.2144 23.75L25.6519 22.75H21.75V23.75H26.2144Z" fill="white"/>
<defs>
<filter id="filter0_d_1_3151" x="0.611331" y="0.458498" width="39.3269" height="40.9106" filterUnits="userSpaceOnUse" color-interpolation-filters="sRGB">
<feFlood flood-opacity="0" result="BackgroundImageFix"/>
<feColorMatrix in="SourceAlpha" type="matrix" values="0 0 0 0 0 0 0 0 0 0 0 0 0 0 0 0 0 0 127 0" result="hardAlpha"/>
<feOffset dy="1.84717"/>
<feGaussianBlur stdDeviation="3.69433"/>
<feComposite in2="hardAlpha" operator="out"/>
<feColorMatrix type="matrix" values="0 0 0 0 0 0 0 0 0 0 0 0 0 0 0 0 0 0 0.12 0"/>
<feBlend mode="normal" in2="BackgroundImageFix" result="effect1_dropShadow_1_3151"/>
<feBlend mode="normal" in="SourceGraphic" in2="effect1_dropShadow_1_3151" result="shape"/>
</filter>
</defs>
</svg>
