<svg width="20" height="20" viewBox="0 0 20 20" fill="none" xmlns="http://www.w3.org/2000/svg">
<path d="M16.601 8.0333L17.3735 7.2608C17.988 6.64628 18.3333 5.8128 18.3333 4.94372C18.3333 4.07465 17.988 3.24117 17.3735 2.62664C16.759 2.01211 15.9255 1.66687 15.0564 1.66687C14.1874 1.66687 13.3539 2.01211 12.7393 2.62664L11.9668 3.39914L4.86518 10.4991C4.38434 10.9808 4.14351 11.2216 3.93685 11.4866C3.69277 11.7994 3.48348 12.1378 3.31268 12.4958C3.16851 12.7991 3.06101 13.1225 2.84601 13.7675L1.93435 16.5016M16.601 8.0333C16.601 8.0333 14.9602 7.93664 13.5118 6.4883C12.0635 5.0408 11.9677 3.39914 11.9677 3.39914M16.601 8.0333L9.50018 15.1333C9.01934 15.6141 8.77851 15.855 8.51351 16.0616C8.20079 16.3057 7.8624 16.515 7.50434 16.6858C7.20101 16.83 6.87851 16.9375 6.23268 17.1525L3.49851 18.0641M3.49851 18.0641L2.83018 18.2875C2.67439 18.3397 2.50712 18.3475 2.34717 18.3099C2.18722 18.2722 2.04093 18.1908 1.92474 18.0746C1.80855 17.9584 1.72707 17.8121 1.68947 17.6521C1.65186 17.4922 1.65961 17.3249 1.71185 17.1691L1.93518 16.5008L3.49851 18.0641Z" stroke="#8E8E8E"/>
</svg>
