<svg width="40" height="42" viewBox="0 0 40 42" fill="none" xmlns="http://www.w3.org/2000/svg">
<g filter="url(#filter0_d_1_3187)">
<path d="M27.2889 6H13.2606C10.3553 6 8 8.50721 8 11.6V26.5333C8 29.6261 10.3553 32.1333 13.2606 32.1333H27.2889C30.1942 32.1333 32.5495 29.6261 32.5495 26.5333V11.6C32.5495 8.50721 30.1942 6 27.2889 6Z" fill="#1F467D"/>
</g>
<path d="M27.058 16.038V15.738H14.658V19.238H27.058V16.038ZM14.658 24.438H13.958V24.838H14.658V25.138H13.958V25.538H14.658V25.838H13.958V26.238H14.658V26.338C14.6535 26.5231 14.6866 26.7072 14.7554 26.8791C14.8241 27.051 14.9271 27.2071 15.058 27.338C15.1889 27.469 15.345 27.5719 15.5169 27.6407C15.6888 27.7094 15.8729 27.7425 16.058 27.738H25.658C25.8431 27.7425 26.0272 27.7094 26.1991 27.6407C26.371 27.5719 26.5271 27.469 26.658 27.338C26.7889 27.2071 26.8919 27.051 26.9607 26.8791C27.0294 26.7072 27.0625 26.5231 27.058 26.338V23.738H14.658V24.438ZM27.058 11.438C27.0715 11.2638 27.0472 11.0888 26.9866 10.925C26.9261 10.7611 26.8308 10.6123 26.7072 10.4888C26.5837 10.3653 26.4349 10.27 26.2711 10.2094C26.1072 10.1488 25.9322 10.1245 25.758 10.138H25.558V9.33801H25.058V10.138H16.058C15.7044 10.1406 15.3646 10.2755 15.1055 10.5161C14.8464 10.7567 14.6867 11.0856 14.658 11.438V15.238H27.058V11.438ZM22.158 12.938H19.558C19.3193 12.938 19.0904 12.8432 18.9216 12.6744C18.7528 12.5056 18.658 12.2767 18.658 12.038C18.758 11.538 19.058 11.138 19.558 11.138H22.158C22.3967 11.138 22.6256 11.2328 22.7944 11.4016C22.9632 11.5704 23.058 11.7993 23.058 12.038C23.058 12.2767 22.9632 12.5056 22.7944 12.6744C22.6256 12.8432 22.3967 12.938 22.158 12.938ZM27.058 21.938V19.738H14.658V23.338H27.058V21.938Z" fill="white"/>
<defs>
<filter id="filter0_d_1_3187" x="0.611331" y="0.458498" width="39.3267" height="40.9106" filterUnits="userSpaceOnUse" color-interpolation-filters="sRGB">
<feFlood flood-opacity="0" result="BackgroundImageFix"/>
<feColorMatrix in="SourceAlpha" type="matrix" values="0 0 0 0 0 0 0 0 0 0 0 0 0 0 0 0 0 0 127 0" result="hardAlpha"/>
<feOffset dy="1.84717"/>
<feGaussianBlur stdDeviation="3.69433"/>
<feComposite in2="hardAlpha" operator="out"/>
<feColorMatrix type="matrix" values="0 0 0 0 0 0 0 0 0 0 0 0 0 0 0 0 0 0 0.12 0"/>
<feBlend mode="normal" in2="BackgroundImageFix" result="effect1_dropShadow_1_3187"/>
<feBlend mode="normal" in="SourceGraphic" in2="effect1_dropShadow_1_3187" result="shape"/>
</filter>
</defs>
</svg>
