<svg width="17" height="16" viewBox="0 0 17 16" fill="none" xmlns="http://www.w3.org/2000/svg">
<circle cx="8.33331" cy="8" r="8" fill="black"/>
<path d="M12.0251 7.86315C12.1656 7.72252 12.2444 7.5319 12.2444 7.33315C12.2444 7.1344 12.1656 6.94377 12.0251 6.80315L9.19711 3.97365C9.05641 3.83295 8.86558 3.75391 8.66661 3.75391C8.46763 3.75391 8.2768 3.83295 8.13611 3.97365C7.99541 4.11434 7.91637 4.30517 7.91637 4.50415C7.91637 4.70312 7.99541 4.89395 8.13611 5.03465L9.68411 6.58315L3.91661 6.58315C3.71769 6.58315 3.52693 6.66216 3.38628 6.80282C3.24562 6.94347 3.16661 7.13423 3.16661 7.33315C3.16661 7.53206 3.24562 7.72282 3.38628 7.86348C3.52693 8.00413 3.71769 8.08315 3.91661 8.08315L9.68411 8.08315L8.13611 9.63115C8.06644 9.70081 8.01118 9.78352 7.97347 9.87454C7.93577 9.96556 7.91637 10.0631 7.91637 10.1616C7.91637 10.2602 7.93577 10.3577 7.97347 10.4488C8.01118 10.5398 8.06644 10.6225 8.13611 10.6921C8.20577 10.7618 8.28848 10.8171 8.3795 10.8548C8.47052 10.8925 8.56808 10.9119 8.66661 10.9119C8.76513 10.9119 8.86269 10.8925 8.95371 10.8548C9.04473 10.8171 9.12744 10.7618 9.19711 10.6921L12.0251 7.86315Z" fill="#DDB271"/>
</svg>
