<svg width="40" height="42" viewBox="0 0 40 42" fill="none" xmlns="http://www.w3.org/2000/svg">
<g filter="url(#filter0_d_1_3174)">
<path d="M27.2889 6H13.2606C10.3553 6 8 8.50721 8 11.6V26.5333C8 29.6261 10.3553 32.1333 13.2606 32.1333H27.2889C30.1942 32.1333 32.5495 29.6261 32.5495 26.5333V11.6C32.5495 8.50721 30.1942 6 27.2889 6Z" fill="#1F467D"/>
</g>
<path d="M20.0002 15.6667C20.3684 15.6667 20.6668 15.3682 20.6668 15C20.6668 14.6319 20.3684 14.3334 20.0002 14.3334C19.632 14.3334 19.3335 14.6319 19.3335 15C19.3335 15.3682 19.632 15.6667 20.0002 15.6667Z" fill="white"/>
<path d="M16 22.3334H24V23.6667H16V22.3334ZM18.6667 18.8867L20.528 20.7494L23.1493 18.126L24 19V16.3334H21.3333L22.2067 17.1834L20.5273 18.8627L18.6667 17L16 19.6667L16.9427 20.6094L18.6667 18.8867Z" fill="white"/>
<path d="M24.6668 13H22.4682C22.4021 12.9018 22.3309 12.8073 22.2548 12.7167L22.2482 12.7087C21.7582 12.1384 21.0691 11.7765 20.3215 11.6967C20.1091 11.6566 19.8912 11.6566 19.6788 11.6967C18.9312 11.7765 18.2422 12.1384 17.7522 12.7087L17.7455 12.7167C17.6694 12.807 17.5982 12.9014 17.5322 12.9993V13H15.3335C14.8032 13.0005 14.2948 13.2114 13.9199 13.5864C13.5449 13.9613 13.334 14.4697 13.3335 15V24.3333C13.334 24.8636 13.5449 25.372 13.9199 25.747C14.2948 26.1219 14.8032 26.3328 15.3335 26.3333H24.6668C25.1971 26.3328 25.7055 26.1219 26.0805 25.747C26.4554 25.372 26.6663 24.8636 26.6668 24.3333V15C26.6663 14.4697 26.4554 13.9613 26.0805 13.5864C25.7055 13.2114 25.1971 13.0005 24.6668 13ZM25.3335 24.3333C25.3335 24.5101 25.2633 24.6797 25.1382 24.8047C25.0132 24.9298 24.8436 25 24.6668 25H15.3335C15.1567 25 14.9871 24.9298 14.8621 24.8047C14.7371 24.6797 14.6668 24.5101 14.6668 24.3333V15C14.6668 14.8232 14.7371 14.6536 14.8621 14.5286C14.9871 14.4036 15.1567 14.3333 15.3335 14.3333H18.3668C18.4433 13.9566 18.6477 13.6178 18.9454 13.3745C19.2431 13.1312 19.6157 12.9983 20.0002 12.9983C20.3846 12.9983 20.7572 13.1312 21.0549 13.3745C21.3526 13.6178 21.557 13.9566 21.6335 14.3333H24.6668C24.8436 14.3333 25.0132 14.4036 25.1382 14.5286C25.2633 14.6536 25.3335 14.8232 25.3335 15V24.3333Z" fill="white"/>
<defs>
<filter id="filter0_d_1_3174" x="0.611331" y="0.458498" width="39.3267" height="40.9106" filterUnits="userSpaceOnUse" color-interpolation-filters="sRGB">
<feFlood flood-opacity="0" result="BackgroundImageFix"/>
<feColorMatrix in="SourceAlpha" type="matrix" values="0 0 0 0 0 0 0 0 0 0 0 0 0 0 0 0 0 0 127 0" result="hardAlpha"/>
<feOffset dy="1.84717"/>
<feGaussianBlur stdDeviation="3.69433"/>
<feComposite in2="hardAlpha" operator="out"/>
<feColorMatrix type="matrix" values="0 0 0 0 0 0 0 0 0 0 0 0 0 0 0 0 0 0 0.12 0"/>
<feBlend mode="normal" in2="BackgroundImageFix" result="effect1_dropShadow_1_3174"/>
<feBlend mode="normal" in="SourceGraphic" in2="effect1_dropShadow_1_3174" result="shape"/>
</filter>
</defs>
</svg>
