<svg width="22" height="22" viewBox="0 0 22 22" fill="none" xmlns="http://www.w3.org/2000/svg">
<circle cx="11" cy="11" r="11" fill="#0D3760"/>
<path d="M11.704 17L6.152 12.6V10.68H10.632C11.0267 10.68 11.368 10.6053 11.656 10.456C11.944 10.296 12.168 10.0773 12.328 9.8C12.488 9.52267 12.568 9.20267 12.568 8.84C12.568 8.46667 12.488 8.14667 12.328 7.88C12.168 7.60267 11.944 7.38933 11.656 7.24C11.368 7.08 11.0267 7 10.632 7H6.152V5.08H15.704V6.424H12.984L13.528 5.992C13.912 6.32267 14.2107 6.728 14.424 7.208C14.6373 7.67733 14.744 8.22133 14.744 8.84C14.744 9.62933 14.5627 10.3067 14.2 10.872C13.848 11.4267 13.3627 11.8533 12.744 12.152C12.1253 12.4507 11.4107 12.6 10.6 12.6H8.456L8.664 11.992L14.904 17H11.704ZM6.152 9.496V8.168H15.704V9.496H6.152Z" fill="#F7F2FF"/>
</svg>
