<svg width="40" height="42" viewBox="0 0 40 42" fill="none" xmlns="http://www.w3.org/2000/svg">
<g filter="url(#filter0_d_1_3162)">
<path d="M27.2889 6H13.2606C10.3553 6 8 8.50721 8 11.6V26.5333C8 29.6261 10.3553 32.1333 13.2606 32.1333H27.2889C30.1942 32.1333 32.5495 29.6261 32.5495 26.5333V11.6C32.5495 8.50721 30.1942 6 27.2889 6Z" fill="#1F467D"/>
</g>
<path d="M20.803 13.75C24.2549 13.75 27.053 16.5481 27.053 20C27.053 23.4519 24.2549 26.25 20.803 26.25C17.3511 26.25 14.553 23.4519 14.553 20C14.553 16.5481 17.3511 13.75 20.803 13.75ZM20.803 15C19.4769 15 18.2051 15.5268 17.2674 16.4645C16.3298 17.4021 15.803 18.6739 15.803 20C15.803 21.3261 16.3298 22.5979 17.2674 23.5355C18.2051 24.4732 19.4769 25 20.803 25C22.1291 25 23.4008 24.4732 24.3385 23.5355C25.2762 22.5979 25.803 21.3261 25.803 20C25.803 18.6739 25.2762 17.4021 24.3385 16.4645C23.4008 15.5268 22.1291 15 20.803 15ZM20.803 16.25C20.9561 16.25 21.1038 16.3062 21.2182 16.4079C21.3326 16.5097 21.4057 16.6498 21.4236 16.8019L21.428 16.875V19.7413L23.1199 21.4331C23.2319 21.5456 23.297 21.6965 23.3019 21.8552C23.3067 22.014 23.251 22.1686 23.1459 22.2877C23.0409 22.4068 22.8945 22.4814 22.7364 22.4965C22.5784 22.5116 22.4205 22.4659 22.2949 22.3687L22.2361 22.3169L20.3611 20.4419C20.264 20.3447 20.2016 20.2181 20.1836 20.0819L20.178 20V16.875C20.178 16.7092 20.2438 16.5503 20.361 16.4331C20.4782 16.3158 20.6372 16.25 20.803 16.25Z" fill="white"/>
<defs>
<filter id="filter0_d_1_3162" x="0.611331" y="0.458498" width="39.3269" height="40.9106" filterUnits="userSpaceOnUse" color-interpolation-filters="sRGB">
<feFlood flood-opacity="0" result="BackgroundImageFix"/>
<feColorMatrix in="SourceAlpha" type="matrix" values="0 0 0 0 0 0 0 0 0 0 0 0 0 0 0 0 0 0 127 0" result="hardAlpha"/>
<feOffset dy="1.84717"/>
<feGaussianBlur stdDeviation="3.69433"/>
<feComposite in2="hardAlpha" operator="out"/>
<feColorMatrix type="matrix" values="0 0 0 0 0 0 0 0 0 0 0 0 0 0 0 0 0 0 0.12 0"/>
<feBlend mode="normal" in2="BackgroundImageFix" result="effect1_dropShadow_1_3162"/>
<feBlend mode="normal" in="SourceGraphic" in2="effect1_dropShadow_1_3162" result="shape"/>
</filter>
</defs>
</svg>
