<svg width="22" height="23" viewBox="0 0 22 23" fill="none" xmlns="http://www.w3.org/2000/svg">
<path fill-rule="evenodd" clip-rule="evenodd" d="M15 8.56836C15 9.62923 14.5786 10.6466 13.8284 11.3968C13.0783 12.1469 12.0609 12.5684 11 12.5684C9.93913 12.5684 8.92172 12.1469 8.17157 11.3968C7.42143 10.6466 7 9.62923 7 8.56836C7 7.50749 7.42143 6.49008 8.17157 5.73993C8.92172 4.98979 9.93913 4.56836 11 4.56836C12.0609 4.56836 13.0783 4.98979 13.8284 5.73993C14.5786 6.49008 15 7.50749 15 8.56836ZM13 8.56836C13 9.09879 12.7893 9.6075 12.4142 9.98257C12.0391 10.3576 11.5304 10.5684 11 10.5684C10.4696 10.5684 9.96086 10.3576 9.58579 9.98257C9.21071 9.6075 9 9.09879 9 8.56836C9 8.03793 9.21071 7.52922 9.58579 7.15415C9.96086 6.77907 10.4696 6.56836 11 6.56836C11.5304 6.56836 12.0391 6.77907 12.4142 7.15415C12.7893 7.52922 13 8.03793 13 8.56836Z" fill="#1F467D"/>
<path fill-rule="evenodd" clip-rule="evenodd" d="M11 0.568359C4.925 0.568359 0 5.49336 0 11.5684C0 17.6434 4.925 22.5684 11 22.5684C17.075 22.5684 22 17.6434 22 11.5684C22 5.49336 17.075 0.568359 11 0.568359ZM2 11.5684C2 13.6584 2.713 15.5824 3.908 17.1104C4.74744 16.0085 5.83015 15.1155 7.07164 14.5011C8.31312 13.8867 9.6798 13.5675 11.065 13.5684C12.4324 13.5668 13.7821 13.8775 15.0111 14.4767C16.2402 15.076 17.3162 15.9481 18.157 17.0264C19.0234 15.89 19.6068 14.5636 19.8589 13.1569C20.111 11.7503 20.0244 10.3039 19.6065 8.93734C19.1886 7.57079 18.4512 6.32341 17.4555 5.2984C16.4598 4.27339 15.2343 3.50022 13.8804 3.04287C12.5265 2.58552 11.0832 2.45713 9.66986 2.66833C8.25652 2.87953 6.91379 3.42425 5.75277 4.25741C4.59175 5.09058 3.64581 6.18823 2.99323 7.45956C2.34065 8.73088 2.00018 10.1393 2 11.5684ZM11 20.5684C8.93391 20.5717 6.93014 19.8609 5.328 18.5564C5.97281 17.633 6.83119 16.8791 7.83008 16.3588C8.82896 15.8386 9.93876 15.5674 11.065 15.5684C12.1772 15.5674 13.2735 15.8318 14.263 16.3397C15.2524 16.8475 16.1064 17.5842 16.754 18.4884C15.1395 19.8354 13.1026 20.5716 11 20.5684Z" fill="#1F467D"/>
</svg>
