<svg width="24" height="22" viewBox="0 0 24 22" fill="none" xmlns="http://www.w3.org/2000/svg">
<rect width="24" height="22" fill="transparent"/>
<rect width="1920" height="981.333" transform="translate(-1682 -242)" fill="transparent"/>
<g filter="url(#filter0_d_0_1)">
<rect x="-24" y="-242" width="261.333" height="981.333" fill="transparent"/>
<rect x="-23.3333" y="-241.333" width="260" height="980" stroke="#F0F0F0" stroke-width="1.33333"/>
</g>
<path d="M6.4 9.66563H11.2V21.2359H6.4V9.66563ZM8 19.9503H9.6V10.9512H8V19.9503ZM12.8 12.2368H17.6V21.2359H12.8V12.2368ZM14.4 19.9503H16V13.5224H14.4V19.9503ZM0 14.808H4.8V21.2359H0V14.808ZM1.6 19.9503H3.2V16.0936H1.6V19.9503ZM19.2 7.09445H24V21.2359H19.2V7.09445ZM20.8 19.9503H22.4V8.38004H20.8V19.9503ZM17.3625 6.90362C17.5208 7.17815 17.6 7.45602 17.6 7.73725C17.6 8.00508 17.5375 8.25617 17.4125 8.49052C17.2875 8.72487 17.1167 8.9291 16.9 9.10319C16.6833 9.27728 16.4292 9.41454 16.1375 9.51498C15.8458 9.61541 15.5333 9.66563 15.2 9.66563C14.8667 9.66563 14.5542 9.61541 14.2625 9.51498C13.9708 9.41454 13.7167 9.27728 13.5 9.10319C13.2833 8.9291 13.1125 8.72487 12.9875 8.49052C12.8625 8.25617 12.8 8.00508 12.8 7.73725V7.61672C12.8 7.57655 12.8042 7.53637 12.8125 7.4962L10.4625 6.55209C10.2458 6.72618 9.99167 6.8601 9.7 6.95384C9.40833 7.04758 9.10833 7.09445 8.8 7.09445C8.45 7.09445 8.10417 7.03084 7.7625 6.90362L4.5625 9.4748C4.72083 9.74933 4.8 10.0272 4.8 10.3084C4.8 10.5763 4.7375 10.8273 4.6125 11.0617C4.4875 11.2961 4.31667 11.5003 4.1 11.6744C3.88333 11.8485 3.62917 11.9857 3.3375 12.0862C3.04583 12.1866 2.73333 12.2368 2.4 12.2368C2.06667 12.2368 1.75417 12.1866 1.4625 12.0862C1.17083 11.9857 0.916667 11.8485 0.7 11.6744C0.483333 11.5003 0.3125 11.2961 0.1875 11.0617C0.0625 10.8273 0 10.5763 0 10.3084C0 10.0406 0.0625 9.7895 0.1875 9.55515C0.3125 9.3208 0.483333 9.11658 0.7 8.94249C0.916667 8.7684 1.17083 8.63113 1.4625 8.5307C1.75417 8.43026 2.06667 8.38004 2.4 8.38004C2.75 8.38004 3.09583 8.44365 3.4375 8.57087L6.6375 5.99969C6.47917 5.72516 6.4 5.44729 6.4 5.16607C6.4 4.89824 6.4625 4.64714 6.5875 4.41279C6.7125 4.17844 6.88333 3.97422 7.1 3.80013C7.31667 3.62604 7.57083 3.48877 7.8625 3.38834C8.15417 3.2879 8.46667 3.23768 8.8 3.23768C9.13333 3.23768 9.44583 3.2879 9.7375 3.38834C10.0292 3.48877 10.2833 3.62604 10.5 3.80013C10.7167 3.97422 10.8875 4.17844 11.0125 4.41279C11.1375 4.64714 11.2 4.89824 11.2 5.16607V5.28659C11.2 5.32677 11.1958 5.36694 11.1875 5.40712L13.5375 6.35122C13.7542 6.17713 14.0083 6.04321 14.3 5.94947C14.5917 5.85573 14.8917 5.80886 15.2 5.80886C15.55 5.80886 15.8958 5.87247 16.2375 5.99969L19.4375 3.42851C19.2792 3.15399 19.2 2.87611 19.2 2.59489C19.2 2.32706 19.2625 2.07597 19.3875 1.84161C19.5125 1.60726 19.6833 1.40304 19.9 1.22895C20.1167 1.05486 20.3708 0.917596 20.6625 0.817159C20.9542 0.716722 21.2667 0.666504 21.6 0.666504C21.9333 0.666504 22.2458 0.716722 22.5375 0.817159C22.8292 0.917596 23.0833 1.05486 23.3 1.22895C23.5167 1.40304 23.6875 1.60726 23.8125 1.84161C23.9375 2.07597 24 2.32706 24 2.59489C24 2.86272 23.9375 3.11381 23.8125 3.34816C23.6875 3.58252 23.5167 3.78674 23.3 3.96083C23.0833 4.13492 22.8292 4.27218 22.5375 4.37262C22.2458 4.47305 21.9333 4.52327 21.6 4.52327C21.25 4.52327 20.9042 4.45966 20.5625 4.33244L17.3625 6.90362ZM2.4 10.9512C2.61667 10.9512 2.80417 10.8876 2.9625 10.7604C3.12083 10.6332 3.2 10.4825 3.2 10.3084C3.2 10.1343 3.12083 9.98368 2.9625 9.85646C2.80417 9.72924 2.61667 9.66563 2.4 9.66563C2.18333 9.66563 1.99583 9.72924 1.8375 9.85646C1.67917 9.98368 1.6 10.1343 1.6 10.3084C1.6 10.4825 1.67917 10.6332 1.8375 10.7604C1.99583 10.8876 2.18333 10.9512 2.4 10.9512ZM21.6 1.95209C21.3833 1.95209 21.1958 2.0157 21.0375 2.14292C20.8792 2.27014 20.8 2.4208 20.8 2.59489C20.8 2.76898 20.8792 2.91963 21.0375 3.04685C21.1958 3.17407 21.3833 3.23768 21.6 3.23768C21.8167 3.23768 22.0042 3.17407 22.1625 3.04685C22.3208 2.91963 22.4 2.76898 22.4 2.59489C22.4 2.4208 22.3208 2.27014 22.1625 2.14292C22.0042 2.0157 21.8167 1.95209 21.6 1.95209ZM8.8 5.80886C9.01667 5.80886 9.20417 5.74525 9.3625 5.61803C9.52083 5.49081 9.6 5.34016 9.6 5.16607C9.6 4.99198 9.52083 4.84132 9.3625 4.7141C9.20417 4.58688 9.01667 4.52327 8.8 4.52327C8.58333 4.52327 8.39583 4.58688 8.2375 4.7141C8.07917 4.84132 8 4.99198 8 5.16607C8 5.34016 8.07917 5.49081 8.2375 5.61803C8.39583 5.74525 8.58333 5.80886 8.8 5.80886ZM15.2 8.38004C15.4167 8.38004 15.6042 8.31643 15.7625 8.18921C15.9208 8.06199 16 7.91134 16 7.73725C16 7.56316 15.9208 7.4125 15.7625 7.28528C15.6042 7.15806 15.4167 7.09445 15.2 7.09445C14.9833 7.09445 14.7958 7.15806 14.6375 7.28528C14.4792 7.4125 14.4 7.56316 14.4 7.73725C14.4 7.91134 14.4792 8.06199 14.6375 8.18921C14.7958 8.31643 14.9833 8.38004 15.2 8.38004Z" fill="#1f467d "/>
<defs>
<filter id="filter0_d_0_1" x="-29.3333" y="-244.667" width="272" height="992" filterUnits="userSpaceOnUse" color-interpolation-filters="sRGB">
<feFlood flood-opacity="0" result="BackgroundImageFix"/>
<feColorMatrix in="SourceAlpha" type="matrix" values="0 0 0 0 0 0 0 0 0 0 0 0 0 0 0 0 0 0 127 0" result="hardAlpha"/>
<feOffset dy="2.66667"/>
<feGaussianBlur stdDeviation="2.66667"/>
<feComposite in2="hardAlpha" operator="out"/>
<feColorMatrix type="matrix" values="0 0 0 0 0 0 0 0 0 0 0 0 0 0 0 0 0 0 0.25 0"/>
<feBlend mode="normal" in2="BackgroundImageFix" result="effect1_dropShadow_0_1"/>
<feBlend mode="normal" in="SourceGraphic" in2="effect1_dropShadow_0_1" result="shape"/>
</filter>
</defs>
</svg>
