<svg width="26" height="22" viewBox="0 0 26 22" fill="none" xmlns="http://www.w3.org/2000/svg">
<rect width="26" height="22" fill="transparent"/>
<rect width="1920" height="981.333" transform="translate(-1681 -329)" fill="transparent"/>
<g filter="url(#filter0_d_0_1)">
<rect x="-23" y="-329" width="261.333" height="981.333" fill="transparent"/>
<rect x="-22.3333" y="-328.333" width="260" height="980" stroke="#F0F0F0" stroke-width="1.33333"/>
</g>
<path d="M9 1.6665H2.33333C1.97971 1.6665 1.64057 1.77938 1.39052 1.98029C1.14048 2.1812 1 2.4537 1 2.73783V8.09445C1 8.37858 1.14048 8.65108 1.39052 8.85199C1.64057 9.0529 1.97971 9.16578 2.33333 9.16578H9C9.35362 9.16578 9.69276 9.0529 9.94281 8.85199C10.1929 8.65108 10.3333 8.37858 10.3333 8.09445V2.73783C10.3333 2.4537 10.1929 2.1812 9.94281 1.98029C9.69276 1.77938 9.35362 1.6665 9 1.6665ZM9 13.4511H2.33333C1.97971 13.4511 1.64057 13.5639 1.39052 13.7649C1.14048 13.9658 1 14.2383 1 14.5224V19.879C1 20.1632 1.14048 20.4357 1.39052 20.6366C1.64057 20.8375 1.97971 20.9503 2.33333 20.9503H9C9.35362 20.9503 9.69276 20.8375 9.94281 20.6366C10.1929 20.4357 10.3333 20.1632 10.3333 19.879V14.5224C10.3333 14.2383 10.1929 13.9658 9.94281 13.7649C9.69276 13.5639 9.35362 13.4511 9 13.4511ZM23.6667 1.6665H17C16.6464 1.6665 16.3072 1.77938 16.0572 1.98029C15.8071 2.1812 15.6667 2.4537 15.6667 2.73783V8.09445C15.6667 8.37858 15.8071 8.65108 16.0572 8.85199C16.3072 9.0529 16.6464 9.16578 17 9.16578H23.6667C24.0203 9.16578 24.3594 9.0529 24.6095 8.85199C24.8595 8.65108 25 8.37858 25 8.09445V2.73783C25 2.4537 24.8595 2.1812 24.6095 1.98029C24.3594 1.77938 24.0203 1.6665 23.6667 1.6665ZM23.6667 13.4511H17C16.6464 13.4511 16.3072 13.5639 16.0572 13.7649C15.8071 13.9658 15.6667 14.2383 15.6667 14.5224V19.879C15.6667 20.1632 15.8071 20.4357 16.0572 20.6366C16.3072 20.8375 16.6464 20.9503 17 20.9503H23.6667C24.0203 20.9503 24.3594 20.8375 24.6095 20.6366C24.8595 20.4357 25 20.1632 25 19.879V14.5224C25 14.2383 24.8595 13.9658 24.6095 13.7649C24.3594 13.5639 24.0203 13.4511 23.6667 13.4511Z" stroke="#1f467d " stroke-width="1.66667" stroke-linejoin="round"/>
<defs>
<filter id="filter0_d_0_1" x="-28.3333" y="-331.667" width="272" height="992" filterUnits="userSpaceOnUse" color-interpolation-filters="sRGB">
<feFlood flood-opacity="0" result="BackgroundImageFix"/>
<feColorMatrix in="SourceAlpha" type="matrix" values="0 0 0 0 0 0 0 0 0 0 0 0 0 0 0 0 0 0 127 0" result="hardAlpha"/>
<feOffset dy="2.66667"/>
<feGaussianBlur stdDeviation="2.66667"/>
<feComposite in2="hardAlpha" operator="out"/>
<feColorMatrix type="matrix" values="0 0 0 0 0 0 0 0 0 0 0 0 0 0 0 0 0 0 0.25 0"/>
<feBlend mode="normal" in2="BackgroundImageFix" result="effect1_dropShadow_0_1"/>
<feBlend mode="normal" in="SourceGraphic" in2="effect1_dropShadow_0_1" result="shape"/>
</filter>
</defs>
</svg>
