<svg width="20" height="20" viewBox="0 0 20 20" fill="none" xmlns="http://www.w3.org/2000/svg">
<g clip-path="url(#clip0_220_2053)">
<path d="M13.9999 0.666667L14.3693 0.112L14.2013 0H13.9999V0.666667ZM17.9999 3.33333H18.6666V2.976L18.3693 2.77867L17.9999 3.33333ZM16.6666 16H5.99992V17.3333H16.6666V16ZM5.33325 15.3333V2H3.99992V15.3333H5.33325ZM5.99992 1.33333H13.9999V0H5.99992V1.33333ZM17.3333 3.33333V15.3333H18.6666V3.33333H17.3333ZM13.6306 1.22133L17.6306 3.888L18.3693 2.77867L14.3693 0.112L13.6306 1.22133ZM5.99992 16C5.82311 16 5.65354 15.9298 5.52851 15.8047C5.40349 15.6797 5.33325 15.5101 5.33325 15.3333H3.99992C3.99992 15.8638 4.21063 16.3725 4.58571 16.7475C4.96078 17.1226 5.46949 17.3333 5.99992 17.3333V16ZM16.6666 17.3333C17.197 17.3333 17.7057 17.1226 18.0808 16.7475C18.4559 16.3725 18.6666 15.8638 18.6666 15.3333H17.3333C17.3333 15.5101 17.263 15.6797 17.138 15.8047C17.013 15.9298 16.8434 16 16.6666 16V17.3333ZM5.33325 2C5.33325 1.82319 5.40349 1.65362 5.52851 1.5286C5.65354 1.40357 5.82311 1.33333 5.99992 1.33333V0C5.46949 0 4.96078 0.210714 4.58571 0.585786C4.21063 0.960859 3.99992 1.46957 3.99992 2H5.33325ZM1.33325 4.66667V18H2.66659V4.66667H1.33325ZM3.33325 20H13.9999V18.6667H3.33325V20ZM3.33325 4H4.66658V2.66667H3.33325V4ZM15.9999 18V16.6667H14.6666V18H15.9999ZM13.9999 20C14.5304 20 15.0391 19.7893 15.4141 19.4142C15.7892 19.0391 15.9999 18.5304 15.9999 18H14.6666C14.6666 18.1768 14.5963 18.3464 14.4713 18.4714C14.3463 18.5964 14.1767 18.6667 13.9999 18.6667V20ZM1.33325 18C1.33325 18.5304 1.54397 19.0391 1.91904 19.4142C2.29411 19.7893 2.80282 20 3.33325 20V18.6667C3.15644 18.6667 2.98687 18.5964 2.86185 18.4714C2.73682 18.3464 2.66659 18.1768 2.66659 18H1.33325ZM2.66659 4.66667C2.66659 4.48986 2.73682 4.32029 2.86185 4.19526C2.98687 4.07024 3.15644 4 3.33325 4V2.66667C2.80282 2.66667 2.29411 2.87738 1.91904 3.25245C1.54397 3.62753 1.33325 4.13623 1.33325 4.66667H2.66659Z" fill="#1E1E1E"/>
</g>
<defs>
<clipPath id="clip0_220_2053">
<rect width="20" height="20" fill="white"/>
</clipPath>
</defs>
</svg>
