<svg width="24" height="25" viewBox="0 0 24 25" fill="none" xmlns="http://www.w3.org/2000/svg">
<rect width="24" height="25" fill="transparent"/>
<rect width="1920" height="981.333" transform="translate(-1682 -154)" fill="transparent"/>
<g filter="url(#filter0_d_0_1)">
<rect x="-24" y="-154" width="261.333" height="981.333" fill="transparent"/>
<rect x="-23.3333" y="-153.333" width="260" height="980" stroke="#F0F0F0" stroke-width="1.33333"/>
</g>
<rect x="-16" y="-3.3335" width="253.333" height="33.3333" rx="2.66667" fill="transparent"/>
<path d="M21.5202 10.2045C21.5202 9.95965 21.4231 9.72486 21.2504 9.55174C21.0776 9.37862 20.8432 9.28137 20.5989 9.28137C20.3545 9.28137 20.1202 9.37862 19.9474 9.55174C19.7746 9.72486 19.6776 9.95965 19.6776 10.2045H21.5202ZM4.32242 10.2045C4.32242 9.95965 4.22536 9.72486 4.05258 9.55174C3.8798 9.37862 3.64546 9.28137 3.40112 9.28137C3.15677 9.28137 2.92243 9.37862 2.74965 9.55174C2.57687 9.72486 2.47981 9.95965 2.47981 10.2045H4.32242ZM22.4047 13.3184C22.489 13.4091 22.5907 13.4819 22.7037 13.5323C22.8167 13.5828 22.9387 13.6099 23.0624 13.6121C23.1861 13.6143 23.309 13.5915 23.4237 13.545C23.5385 13.4986 23.6427 13.4295 23.7302 13.3419C23.8176 13.2542 23.8866 13.1498 23.9329 13.0348C23.9793 12.9199 24.002 12.7968 23.9999 12.6728C23.9977 12.5489 23.9706 12.4267 23.9202 12.3134C23.8699 12.2002 23.7973 12.0983 23.7068 12.0138L22.4047 13.3184ZM12 1.5888L12.6511 0.93647C12.4783 0.763602 12.2441 0.666504 12 0.666504C11.7559 0.666504 11.5217 0.763602 11.3489 0.93647L12 1.5888ZM0.293232 12.0138C0.202715 12.0983 0.130113 12.2002 0.0797577 12.3134C0.0294027 12.4267 0.00232601 12.5489 0.000143382 12.6728C-0.00203924 12.7968 0.0207166 12.9199 0.0670536 13.0348C0.113391 13.1498 0.182359 13.2542 0.269845 13.3419C0.357331 13.4295 0.461542 13.4986 0.576262 13.545C0.690981 13.5915 0.813857 13.6143 0.937562 13.6121C1.06127 13.6099 1.18326 13.5828 1.29628 13.5323C1.40929 13.4819 1.511 13.4091 1.59535 13.3184L0.293232 12.0138ZM5.85794 24.6665H18.1421V22.8203H5.85794V24.6665ZM21.5202 21.2818V10.2045H19.6776V21.2818H21.5202ZM4.32242 21.2818V10.2045H2.47981V21.2818H4.32242ZM23.7068 12.0138L12.6511 0.93647L11.3489 2.24113L22.4047 13.3184L23.7068 12.0138ZM11.3489 0.93647L0.293232 12.0138L1.59535 13.3184L12.6511 2.24113L11.3489 0.93647ZM18.1421 24.6665C19.038 24.6665 19.8972 24.3099 20.5308 23.6751C21.1643 23.0404 21.5202 22.1795 21.5202 21.2818H19.6776C19.6776 22.131 18.9897 22.8203 18.1421 22.8203V24.6665ZM5.85794 22.8203C5.01033 22.8203 4.32242 22.131 4.32242 21.2818H2.47981C2.47981 22.1795 2.83572 23.0404 3.46924 23.6751C4.10276 24.3099 4.962 24.6665 5.85794 24.6665V22.8203Z" fill="#1f467d "/>
<defs>
<filter id="filter0_d_0_1" x="-29.3333" y="-156.667" width="272" height="992" filterUnits="userSpaceOnUse" color-interpolation-filters="sRGB">
<feFlood flood-opacity="0" result="BackgroundImageFix"/>
<feColorMatrix in="SourceAlpha" type="matrix" values="0 0 0 0 0 0 0 0 0 0 0 0 0 0 0 0 0 0 127 0" result="hardAlpha"/>
<feOffset dy="2.66667"/>
<feGaussianBlur stdDeviation="2.66667"/>
<feComposite in2="hardAlpha" operator="out"/>
<feColorMatrix type="matrix" values="0 0 0 0 0 0 0 0 0 0 0 0 0 0 0 0 0 0 0.25 0"/>
<feBlend mode="normal" in2="BackgroundImageFix" result="effect1_dropShadow_0_1"/>
<feBlend mode="normal" in="SourceGraphic" in2="effect1_dropShadow_0_1" result="shape"/>
</filter>
</defs>
</svg>
