<svg width="24" height="24" viewBox="0 0 24 24" fill="none" xmlns="http://www.w3.org/2000/svg">
<rect width="24" height="24" fill="transparent"/>
<rect width="1920" height="981.333" transform="translate(-1682 -369)" fill="transparent"/>
<g filter="url(#filter0_d_0_1)">
<rect x="-24" y="-369" width="261.333" height="981.333" fill="transparent"/>
<rect x="-23.3333" y="-368.333" width="260" height="980" stroke="#F0F0F0" stroke-width="1.33333"/>
</g>
<path d="M12 24C5.3316 22.6527 0 16.9331 0 10.9091V4.36364L12 0L24 4.36364V10.9091C24 16.9353 18.6684 22.6527 12 24ZM2.4 5.45455V10.9091C2.46858 13.4314 3.44443 15.8638 5.17821 17.834C6.91199 19.8042 9.30817 21.2037 12 21.8182C14.6918 21.2037 17.088 19.8042 18.8218 17.834C20.5556 15.8638 21.5314 13.4314 21.6 10.9091V5.45455L12 2.18182L2.4 5.45455Z" fill="#1f467d "/>
<path d="M12 10.9091C13.6569 10.9091 15 9.68809 15 8.18186C15 6.67563 13.6569 5.45459 12 5.45459C10.3431 5.45459 9 6.67563 9 8.18186C9 9.68809 10.3431 10.9091 12 10.9091Z" fill="#1f467d "/>
<path d="M6 15.2727C6.59147 16.2526 7.45871 17.072 8.51297 17.647C9.56722 18.2221 10.7706 18.5321 12 18.5455C13.2294 18.5321 14.4328 18.2221 15.487 17.647C16.5413 17.072 17.4085 16.2526 18 15.2727C17.97 13.2044 13.9896 12 12 12C9.9996 12 6.03 13.2044 6 15.2727Z" fill="#1f467d "/>
<defs>
<filter id="filter0_d_0_1" x="-29.3333" y="-371.667" width="272" height="992" filterUnits="userSpaceOnUse" color-interpolation-filters="sRGB">
<feFlood flood-opacity="0" result="BackgroundImageFix"/>
<feColorMatrix in="SourceAlpha" type="matrix" values="0 0 0 0 0 0 0 0 0 0 0 0 0 0 0 0 0 0 127 0" result="hardAlpha"/>
<feOffset dy="2.66667"/>
<feGaussianBlur stdDeviation="2.66667"/>
<feComposite in2="hardAlpha" operator="out"/>
<feColorMatrix type="matrix" values="0 0 0 0 0 0 0 0 0 0 0 0 0 0 0 0 0 0 0.25 0"/>
<feBlend mode="normal" in2="BackgroundImageFix" result="effect1_dropShadow_0_1"/>
<feBlend mode="normal" in="SourceGraphic" in2="effect1_dropShadow_0_1" result="shape"/>
</filter>
</defs>
</svg>
