<svg width="30" height="30" viewBox="0 0 30 30" fill="none" xmlns="http://www.w3.org/2000/svg">
<path fill-rule="evenodd" clip-rule="evenodd" d="M11.0472 4.44601L11.188 4.10964C11.2519 3.95715 11.2823 3.80229 11.3319 3.54934C11.3438 3.48829 11.3569 3.42151 11.3719 3.3477C11.6817 1.81846 13.0381 0.666626 14.6667 0.666626C16.2953 0.666626 17.6516 1.81846 17.9614 3.3477C17.9763 3.42147 17.9895 3.48818 18.0014 3.54921C18.051 3.80217 18.0814 3.95715 18.1454 4.10964L18.2862 4.44601C21.5488 5.84284 23.8333 9.07066 23.8333 12.8295V14.3504C23.8335 16.393 25.0422 18.2445 26.918 19.0742L29.3333 20.1425V21.0148C29.3333 21.5799 29.3333 22.0585 29.3012 22.4509C29.2673 22.8622 29.1936 23.2585 29.0003 23.6361C28.7073 24.2083 28.2399 24.6734 27.665 24.9649C27.2855 25.1573 26.8873 25.2307 26.4739 25.2644C26.0797 25.2964 25.5988 25.2964 25.031 25.2964H20.7778C20.3119 25.2964 19.757 25.7228 19.4243 26.5126C18.6463 28.3592 16.8533 29.8574 14.6667 29.8574C12.48 29.8574 10.687 28.3592 9.90904 26.5126C9.57629 25.7228 9.02141 25.2964 8.55556 25.2964H4.30249C3.7346 25.2964 3.25365 25.2964 2.85943 25.2644C2.44607 25.2307 2.04789 25.1573 1.66836 24.9649C1.09342 24.6734 0.625983 24.2083 0.333036 23.6361C0.139656 23.2585 0.0659577 22.8622 0.0321856 22.4509C-2.67383e-05 22.0585 -1.44997e-05 21.5799 6.53103e-07 21.0148V20.1425L2.41501 19.0743C4.29073 18.2447 5.49994 16.3934 5.5 14.3508V12.8295C5.5 9.07066 7.78452 5.84284 11.0472 4.44601ZM13.1691 3.7083C13.3098 3.01376 13.928 2.49105 14.6667 2.49105C15.4054 2.49105 16.0236 3.01376 16.1643 3.7083C16.1718 3.74553 16.1798 3.78718 16.1883 3.83245C15.6935 3.75016 15.1851 3.70733 14.6667 3.70733C14.1482 3.70733 13.6399 3.75016 13.145 3.83245C13.1536 3.78718 13.1615 3.74553 13.1691 3.7083ZM14.6667 5.53176C10.6166 5.53176 7.33333 8.79905 7.33333 12.8295V14.3504C7.33325 17.1141 5.69776 19.6189 3.16002 20.7414L1.83363 21.328C1.83465 21.7505 1.83924 22.0563 1.85943 22.3022C1.88393 22.6008 1.92681 22.7303 1.96654 22.8078C2.08373 23.0368 2.27071 23.2227 2.50068 23.3394C2.57868 23.3789 2.70874 23.4216 3.00872 23.4459C3.3194 23.4712 3.72482 23.4719 4.33889 23.4719H24.9944C25.6085 23.4719 26.0139 23.4712 26.3246 23.4459C26.6246 23.4216 26.7547 23.3789 26.8327 23.3394C27.0627 23.2227 27.2496 23.0368 27.3668 22.8078C27.4065 22.7303 27.4494 22.6008 27.4738 22.3022C27.4941 22.0563 27.4987 21.7505 27.4998 21.328L26.1738 20.7415C23.6359 19.619 22.0001 17.1144 22 14.3508V12.8295C22 8.79905 18.7167 5.53176 14.6667 5.53176ZM11.5998 25.8073C11.5293 25.64 11.4445 25.4677 11.3456 25.2964H17.9878C17.8888 25.4677 17.804 25.64 17.7336 25.8073C17.1814 27.1179 15.9714 28.033 14.6667 28.033C13.3619 28.033 12.1519 27.1179 11.5998 25.8073Z" fill="#4A5264"/>
</svg>
