<svg width="24" height="20" viewBox="0 0 24 20" fill="none" xmlns="http://www.w3.org/2000/svg">
<rect width="24" height="20" fill="transparent"/>
<rect width="1920" height="981.333" transform="translate(-1682 -288)" fill="transparent"/>
<g filter="url(#filter0_d_0_1)">
<rect x="-24" y="-288" width="261.333" height="981.333" fill="transparent"/>
<rect x="-23.3333" y="-287.333" width="260" height="980" stroke="#F0F0F0" stroke-width="1.33333"/>
</g>
<path d="M18.857 13.0856H20.5713V16.5292H18.857V13.0856ZM15.4285 9.64209H17.1428V16.5292H15.4285V9.64209ZM7.71418 16.5292C6.57796 16.5281 5.48866 16.1649 4.68523 15.5194C3.88179 14.8738 3.42983 13.9986 3.42847 13.0856H5.14275C5.14275 13.4943 5.29356 13.8937 5.57612 14.2335C5.85867 14.5733 6.26027 14.8381 6.73014 14.9945C7.2 15.1509 7.71703 15.1918 8.21584 15.1121C8.71465 15.0323 9.17283 14.8356 9.53246 14.5466C9.89208 14.2577 10.137 13.8895 10.2362 13.4887C10.3354 13.0879 10.2845 12.6725 10.0899 12.295C9.89525 11.9174 9.56566 11.5947 9.14279 11.3677C8.71992 11.1407 8.22276 11.0195 7.71418 11.0195V9.64209C8.85082 9.64209 9.94091 10.0049 10.7446 10.6507C11.5484 11.2965 11.9999 12.1723 11.9999 13.0856C11.9999 13.9989 11.5484 14.8748 10.7446 15.5206C9.94091 16.1664 8.85082 16.5292 7.71418 16.5292Z" fill="transparent"/>
<path d="M22.2857 0H1.71429C1.25977 0.000364655 0.823996 0.145602 0.502604 0.403839C0.181211 0.662076 0.000453837 1.01222 0 1.37742V17.9064C0.000453837 18.2716 0.181211 18.6218 0.502604 18.88C0.823996 19.1382 1.25977 19.2835 1.71429 19.2838H22.2857C22.7402 19.2833 23.1758 19.138 23.4971 18.8798C23.8185 18.6216 23.9993 18.2716 24 17.9064V1.37742C23.9995 1.01222 23.8188 0.662076 23.4974 0.403839C23.176 0.145602 22.7402 0.000364655 22.2857 0ZM22.2857 6.19838H10.2857V1.37742H22.2857V6.19838ZM8.57143 1.37742V6.19838H1.71429V1.37742H8.57143ZM1.71429 17.9064V7.5758H22.2857L22.2874 17.9064H1.71429Z" fill="#1f467d "/>
<defs>
<filter id="filter0_d_0_1" x="-29.3333" y="-290.667" width="272" height="992" filterUnits="userSpaceOnUse" color-interpolation-filters="sRGB">
<feFlood flood-opacity="0" result="BackgroundImageFix"/>
<feColorMatrix in="SourceAlpha" type="matrix" values="0 0 0 0 0 0 0 0 0 0 0 0 0 0 0 0 0 0 127 0" result="hardAlpha"/>
<feOffset dy="2.66667"/>
<feGaussianBlur stdDeviation="2.66667"/>
<feComposite in2="hardAlpha" operator="out"/>
<feColorMatrix type="matrix" values="0 0 0 0 0 0 0 0 0 0 0 0 0 0 0 0 0 0 0.25 0"/>
<feBlend mode="normal" in2="BackgroundImageFix" result="effect1_dropShadow_0_1"/>
<feBlend mode="normal" in="SourceGraphic" in2="effect1_dropShadow_0_1" result="shape"/>
</filter>
</defs>
</svg>
