<svg width="64" height="63" viewBox="0 0 64 63" fill="none" xmlns="http://www.w3.org/2000/svg">
<path d="M63.5 31.5C63.5 48.6134 49.4044 62.5 32 62.5C14.5956 62.5 0.5 48.6134 0.5 31.5C0.5 14.3866 14.5956 0.5 32 0.5C49.4044 0.5 63.5 14.3866 63.5 31.5Z" fill="#3BBC7B" stroke="white"/>
<path d="M24.3196 44.3813H30.0481L30.503 42.3369H33.0647L33.5196 44.3813H39.2481L39.8942 41.4751C43.6253 38.3461 44.6884 32.8987 42.1697 28.5358C41.938 28.1372 41.6858 27.7596 41.4132 27.4032C41.4677 27.1061 41.495 26.8025 41.495 26.4924C41.4949 25.4187 41.1566 24.3723 40.5282 23.5017C39.8998 22.6311 39.0132 21.9805 37.9942 21.6423C36.9752 21.304 35.8755 21.2952 34.8512 21.6172C33.8269 21.9391 32.93 22.5755 32.2878 23.436C30.914 23.5218 29.5278 23.8469 28.1938 24.4112L27.2534 24.8098L28.0487 26.6917L28.9901 26.2931C29.7478 25.9714 30.5402 25.7388 31.3515 25.6C31.299 25.8903 31.2728 26.1878 31.2728 26.4924C31.2727 27.5592 31.6066 28.5993 32.2274 29.4669C32.8482 30.3345 33.725 30.986 34.7348 31.3303C35.7445 31.6745 36.8367 31.6941 37.8582 31.3864C38.8797 31.0786 39.7793 30.459 40.4309 29.6143C41.399 31.3212 41.721 33.3194 41.3382 35.2441C40.9554 37.1688 39.8932 38.8916 38.3455 40.0982L38.0562 40.3241L37.6085 42.3379H35.1593L34.7054 40.2934H28.8624L28.4085 42.3379H25.9593L25.2754 39.261L24.7633 39.0647C23.6756 38.6477 22.1433 37.7665 21.0505 36.7852V32.1146H22.1402L24.2327 28.6289L23.5499 26.9207C24.3738 27.027 25.3234 27.4329 26.2087 28.407L26.8966 29.1635L28.4095 27.7876L27.7216 27.0311C25.7865 24.9029 23.4589 24.6085 21.8417 24.9857L20.6815 25.2555L21.9573 28.4449L20.9831 30.0702H19.0061V37.651L19.3077 37.9505C20.4832 39.1199 22.1648 40.1585 23.5141 40.7585L24.3196 44.3813ZM24.6283 33.1369H26.6769V31.0863H24.6283V33.1369ZM36.3839 29.5591C35.5705 29.5591 34.7905 29.236 34.2154 28.6609C33.6403 28.0858 33.3172 27.3057 33.3172 26.4924C33.3172 25.6791 33.6403 24.8991 34.2154 24.3239C34.7905 23.7488 35.5705 23.4257 36.3839 23.4257C37.1972 23.4257 37.9772 23.7488 38.5523 24.3239C39.1275 24.8991 39.4505 25.6791 39.4505 26.4924C39.4505 27.3057 39.1275 28.0858 38.5523 28.6609C37.9772 29.236 37.1972 29.5591 36.3839 29.5591Z" fill="white"/>
</svg>
