<svg width="50" height="50" viewBox="0 0 50 50" fill="none" xmlns="http://www.w3.org/2000/svg">
<path d="M46.875 4.68237L34.3641 4.68242V1.56836C34.3641 0.705078 33.6648 0.00585938 32.8016 0.00585938C31.9383 0.00585938 31.2391 0.705078 31.2391 1.56836V4.68164H18.7391V1.56836C18.7391 0.705078 18.0398 0.00585938 17.1766 0.00585938C16.3133 0.00585938 15.6141 0.705078 15.6141 1.56836V4.68164H3.125C1.39922 4.68164 0 6.08086 0 7.80664V46.8691C0 48.5949 1.39922 49.9941 3.125 49.9941H46.875C48.6008 49.9941 50 48.5949 50 46.8691V7.80664C50 6.08159 48.6008 4.68237 46.875 4.68237ZM46.875 46.8691H3.125V7.80664H15.6141V9.38086C15.6141 10.2441 16.3133 10.9434 17.1766 10.9434C18.0398 10.9434 18.7391 10.2441 18.7391 9.38086V7.80742H31.2391V9.38164C31.2391 10.2449 31.9383 10.9441 32.8016 10.9441C33.6648 10.9441 34.3641 10.2449 34.3641 9.38164V7.80742H46.875V46.8691ZM35.9375 24.9949H39.0625C39.925 24.9949 40.625 24.2949 40.625 23.4324V20.3074C40.625 19.4449 39.925 18.7449 39.0625 18.7449H35.9375C35.075 18.7449 34.375 19.4449 34.375 20.3074V23.4324C34.375 24.2949 35.075 24.9949 35.9375 24.9949ZM35.9375 37.4941H39.0625C39.925 37.4941 40.625 36.7949 40.625 35.9316V32.8066C40.625 31.9441 39.925 31.2441 39.0625 31.2441H35.9375C35.075 31.2441 34.375 31.9441 34.375 32.8066V35.9316C34.375 36.7957 35.075 37.4941 35.9375 37.4941ZM26.5625 31.2441H23.4375C22.575 31.2441 21.875 31.9441 21.875 32.8066V35.9316C21.875 36.7949 22.575 37.4941 23.4375 37.4941H26.5625C27.425 37.4941 28.125 36.7949 28.125 35.9316V32.8066C28.125 31.9449 27.425 31.2441 26.5625 31.2441ZM26.5625 18.7449H23.4375C22.575 18.7449 21.875 19.4449 21.875 20.3074V23.4324C21.875 24.2949 22.575 24.9949 23.4375 24.9949H26.5625C27.425 24.9949 28.125 24.2949 28.125 23.4324V20.3074C28.125 19.4441 27.425 18.7449 26.5625 18.7449ZM14.0625 18.7449H10.9375C10.075 18.7449 9.375 19.4449 9.375 20.3074V23.4324C9.375 24.2949 10.075 24.9949 10.9375 24.9949H14.0625C14.925 24.9949 15.625 24.2949 15.625 23.4324V20.3074C15.625 19.4441 14.925 18.7449 14.0625 18.7449ZM14.0625 31.2441H10.9375C10.075 31.2441 9.375 31.9441 9.375 32.8066V35.9316C9.375 36.7949 10.075 37.4941 10.9375 37.4941H14.0625C14.925 37.4941 15.625 36.7949 15.625 35.9316V32.8066C15.625 31.9449 14.925 31.2441 14.0625 31.2441Z" fill="#04C19B"/>
</svg>
