<svg width="19" height="19" viewBox="0 0 19 19" fill="none" xmlns="http://www.w3.org/2000/svg">
<path d="M8.10904 12.9152L4.75 9.55533L5.86942 8.43591L8.10904 10.6747L12.5867 6.19629L13.7069 7.3165L8.10904 12.9152Z" fill="#12CA5C"/>
<path fill-rule="evenodd" clip-rule="evenodd" d="M0.791687 9.49984C0.791687 4.69046 4.69065 0.791504 9.50002 0.791504C14.3094 0.791504 18.2084 4.69046 18.2084 9.49984C18.2084 14.3092 14.3094 18.2082 9.50002 18.2082C4.69065 18.2082 0.791687 14.3092 0.791687 9.49984ZM9.50002 16.6248C8.56435 16.6248 7.63785 16.4405 6.7734 16.0825C5.90896 15.7244 5.1235 15.1996 4.46188 14.538C3.80027 13.8764 3.27544 13.0909 2.91738 12.2265C2.55931 11.362 2.37502 10.4355 2.37502 9.49984C2.37502 8.56417 2.55931 7.63766 2.91738 6.77322C3.27544 5.90877 3.80027 5.12332 4.46188 4.4617C5.1235 3.80008 5.90896 3.27526 6.7734 2.9172C7.63785 2.55913 8.56435 2.37484 9.50002 2.37484C11.3897 2.37484 13.202 3.1255 14.5382 4.4617C15.8744 5.7979 16.625 7.61017 16.625 9.49984C16.625 11.3895 15.8744 13.2018 14.5382 14.538C13.202 15.8742 11.3897 16.6248 9.50002 16.6248Z" fill="#12CA5C"/>
</svg>
