<svg width="42" height="42" viewBox="0 0 42 42" fill="none" xmlns="http://www.w3.org/2000/svg">
<path d="M21 3V0.75H41.25V3H21ZM21 10.6163V8.36625H41.25V10.6163H21ZM21 18.2302V15.9803H41.25V18.2302H21ZM34.3425 41.25C30.5505 41.25 26.6625 40.3005 22.6785 38.4015C18.6945 36.5025 14.9932 33.8363 11.5747 30.4028C8.15625 26.9693 5.4975 23.268 3.5985 19.299C1.6995 15.33 0.75 11.4495 0.75 7.6575C0.75 6.9705 0.975 6.39825 1.425 5.94075C1.875 5.48325 2.4375 5.253 3.1125 5.25H8.67675C9.28875 5.25 9.82275 5.44275 10.2788 5.82825C10.7333 6.21375 11.0415 6.708 11.2035 7.311L12.3195 12.675C12.4245 13.305 12.4057 13.8547 12.2632 14.3243C12.1207 14.7937 11.871 15.1785 11.514 15.4785L6.57975 20.082C7.50225 21.7575 8.52225 23.3145 9.63975 24.753C10.7573 26.1915 11.9498 27.5542 13.2173 28.8412C14.5223 30.1462 15.9285 31.3612 17.436 32.4862C18.9405 33.6097 20.5928 34.6702 22.3928 35.6677L27.2055 30.7695C27.5715 30.375 27.9832 30.1147 28.4408 29.9888C28.8983 29.8627 29.4037 29.838 29.9573 29.9145L34.6912 30.882C35.3017 31.032 35.7975 31.3402 36.1785 31.8067C36.5595 32.2732 36.75 32.8072 36.75 33.4087V38.8875C36.75 39.5625 36.5205 40.125 36.0615 40.575C35.6025 41.025 35.028 41.25 34.3425 41.25ZM5.52 17.9715L9.84 14.0002C9.9825 13.8847 10.0755 13.7257 10.119 13.5233C10.164 13.3208 10.1565 13.1333 10.0965 12.9608L9.0975 8.19075C9.0405 7.96125 8.94 7.78875 8.796 7.67325C8.652 7.55775 8.46525 7.5 8.23575 7.5H3.61875C3.44625 7.5 3.30225 7.55775 3.18675 7.67325C3.07125 7.78875 3.0135 7.93275 3.0135 8.10525C3.057 9.64275 3.29775 11.2478 3.73575 12.9203C4.17375 14.5928 4.767 16.2765 5.52 17.9715ZM24.5347 36.723C26.0557 37.476 27.6758 38.0333 29.3948 38.3948C31.1168 38.7548 32.6168 38.9475 33.8948 38.973C34.0673 38.973 34.2113 38.9152 34.3268 38.7997C34.4422 38.6842 34.5 38.541 34.5 38.37V33.852C34.5 33.6225 34.4422 33.435 34.3268 33.2895C34.2113 33.1455 34.0388 33.045 33.8092 32.988L29.6468 32.1352C29.4728 32.0767 29.3212 32.0692 29.1922 32.1127C29.0618 32.1577 28.9245 32.2515 28.7805 32.394L24.5347 36.723Z" fill="#1F467D"/>
</svg>
